# xmcd
# 
# Track frame offsets:
#     150
#     20160
#     40170
#     49110
# 
# Disc length: 772
# 
# Revision: 0
# Processed by: cddbd v1.5.2PL0 Copyright (c) Steve Scherf et al.
# Submitted via: BonkEnc v1.0.8
# 
DISCID=2e030204
DTITLE=結奈 - こころのプリズム
DYEAR=2009
DGENRE=Game
TTITLE0=こころのプリズム Full ver.
TTITLE1=こころのプリズム Full ver. (Instrumental)
TTITLE2=こころのプリズム Short ver.
TTITLE3=こころのプリズム Short ver. (Instrumental)
EXTD=
EXTT0=
EXTT1=
EXTT2=
EXTT3=
PLAYORDER=
